<svg xmlns="http://www.w3.org/2000/svg" width="312.516" height="24.445" viewBox="0 0 312.516 24.445"><path d="M987.581,1013.1s-.9-.87-2.744-2.326a74.241,74.241,0,0,0-8.47-5.661,100.876,100.876,0,0,0-14.319-6.834,125.4,125.4,0,0,0-19.75-5.921l-5.677-1.168-5.947-.906c-1.01-.139-2.024-.343-3.058-.429l-3.122-.291c-2.1-.174-4.228-.443-6.394-.546l-6.589-.268-1.674-.068c-.294-.007-.53-.03-.871-.026h-.835l-3.362.005c-2.26.018-4.595.111-6.917.2-2.312.141-4.652.242-7,.417-9.4.671-19.06,1.589-28.845,2.715l-29.622,3.443c-9.912,1.193-19.819,2.344-29.582,3.31-9.764.944-19.368,1.871-28.68,2.472s-18.316,1.016-26.856,1.109c-8.539.077-16.617-.065-24.042-.611l-2.758-.179-2.688-.265-5.191-.53c-3.355-.474-6.565-.819-9.526-1.424-1.486-.281-2.935-.509-4.316-.809l-3.978-.925-1.878-.43c-.609-.152-1.193-.342-1.771-.505l-3.3-.963c-.521-.159-1.036-.289-1.522-.459l-1.406-.514-2.565-.922a39.2,39.2,0,0,1-3.982-1.624l-3.281-1.464,3.159,1.716a39.481,39.481,0,0,0,3.864,1.941l2.507,1.124,1.387.61c.478.2.987.368,1.5.561l3.263,1.187c.573.2,1.153.432,1.758.626l1.865.558,3.97,1.173c1.382.377,2.832.687,4.321,1.052,2.974.774,6.192,1.294,9.57,1.957,1.7.292,3.444.51,5.231.776l2.714.381,2.782.3c1.877.186,3.789.441,5.745.582l5.975.456c4.057.213,8.257.426,12.572.473,8.632.167,17.739.069,27.13-.425,9.393-.474,19.088-1.1,28.9-2.05,9.818-.916,19.769-2,29.7-3.148l29.6-3.621c9.755-1.143,19.338-2.341,28.619-3.138,2.321-.216,4.619-.357,6.9-.537,2.271-.118,4.488-.276,6.735-.365l3.361-.106.834-.026c.214-.012.533,0,.793,0l1.639.017,6.458.068c2.124.037,4.21.239,6.271.347l3.067.193c1.016.058,2.012.208,3.007.305l5.861.644,5.6.912a137.28,137.28,0,0,1,19.654,4.876,110.71,110.71,0,0,1,14.5,5.886,84.273,84.273,0,0,1,8.791,4.987C986.616,1012.3,987.581,1013.1,987.581,1013.1Z" transform="translate(-675.065 -988.653)" fill="#eaa149"/></svg>